<svg xmlns="http://www.w3.org/2000/svg" xmlns:xlink="http://www.w3.org/1999/xlink" viewBox="0 0 20 25" x="0px" y="0px"><defs><clipPath id="a"><rect width="20" height="20"/></clipPath></defs><g clip-path="url(#a)"><path d="M1.5,1a.5.5,0,1,0,.5.5A.5.5,0,0,0,1.5,1m0-1A1.5,1.5,0,1,1,0,1.5,1.5,1.5,0,0,1,1.5,0Z" transform="translate(5 14)"/><path d="M1.5,1a.5.5,0,1,0,.5.5A.5.5,0,0,0,1.5,1m0-1A1.5,1.5,0,1,1,0,1.5,1.5,1.5,0,0,1,1.5,0Z" transform="translate(14 14)"/><path d="M-709,488.486h-8a.5.5,0,0,1-.495-.429l-.856-5.986v0l-.143-1a2.97,2.97,0,0,0-.858-1.773l-.014-.012A2.712,2.712,0,0,0-721,478.5a.5.5,0,0,1-.5-.5.5.5,0,0,1,.5-.5,3.6,3.6,0,0,1,2.277,1.017,3.8,3.8,0,0,1,1.135,1.979H-706a.5.5,0,0,1,.417.225.5.5,0,0,1,.042.472l-3,6.99A.5.5,0,0,1-709,488.486Zm-7.566-1h7.237l2.571-5.99h-10.665Z" transform="translate(723 -474.986)"/><path transform="translate(723 -475.724)"/></g><text x="0" y="35" fill="#000000" font-size="5px" font-weight="bold" font-family="'Helvetica Neue', Helvetica, Arial-Unicode, Arial, Sans-serif">Created by Roberto Chiaveri</text><text x="0" y="40" fill="#000000" font-size="5px" font-weight="bold" font-family="'Helvetica Neue', Helvetica, Arial-Unicode, Arial, Sans-serif">from the Noun Project</text></svg>